<svg width="241" height="23" viewBox="0 0 241 23" fill="none" xmlns="http://www.w3.org/2000/svg">
<path d="M120.005 22.3922H111.752V0.329352H120.005V22.3922ZM112.558 21.5863H119.199V1.13527H112.558V21.5863ZM131.488 22.3922H123.401V0.329352H140.297C142.717 0.133352 145.127 0.812856 147.089 2.24422C147.933 3.01679 148.588 3.97403 149.001 5.04123C149.415 6.10845 149.576 7.25678 149.473 8.39662C149.593 10.3662 148.967 12.3089 147.718 13.8366C146.239 15.5322 143.78 16.4059 140.408 16.4365C139.558 16.4591 133.193 16.4365 131.493 16.4365L131.488 22.3922ZM124.202 21.5863H130.682V15.6225H131.087C131.169 15.6225 139.433 15.6483 140.388 15.6225C143.53 15.5951 145.788 14.8166 147.108 13.2966C148.22 11.9144 148.772 10.1651 148.656 8.39501C148.755 7.3737 148.617 6.34328 148.254 5.38367C147.89 4.42406 147.311 3.56105 146.56 2.86156C144.741 1.55612 142.516 0.94335 140.285 1.13366H124.207L124.202 21.5863ZM138.585 11.4801H130.627V5.47435H138.638C139.206 5.39589 139.784 5.46217 140.32 5.66702C140.855 5.87188 141.33 6.20867 141.701 6.64616C142.037 7.20537 142.195 7.8534 142.155 8.50461C142.185 9.10922 142.055 9.71103 141.776 10.2486C141.394 10.7094 140.9 11.0641 140.341 11.2787C139.782 11.4932 139.177 11.5603 138.585 11.4736V11.4801ZM131.433 10.6742H138.585C139.907 10.6742 140.725 10.3985 141.088 9.83116C141.288 9.41877 141.378 8.96199 141.351 8.50461C141.386 8.02438 141.282 7.54418 141.051 7.12165L141.041 7.10715C140.658 6.543 139.895 6.28027 138.638 6.28027H131.433V10.6742ZM164.181 22.7178C156.944 22.7178 152.624 20.9206 150.978 17.2247C150.709 16.5108 150.526 15.7673 150.433 15.01L150.363 14.5458H158.973L159.029 14.8843C159.096 15.2279 159.242 15.5514 159.455 15.8288C159.795 16.2398 160.93 16.9297 164.695 16.9297C169.221 16.9297 169.221 16.1351 169.221 15.7079C169.221 14.9874 168.697 14.7408 165.006 14.3475L164.305 14.2815C162.916 14.1509 161.159 13.9849 160.356 13.9156C153.586 13.3031 150.564 11.1996 150.564 7.09748C150.564 2.78902 155.707 0.00537109 163.668 0.00537109C170.162 0.00537109 174.347 1.71715 176.102 5.09718C176.518 5.88341 176.798 6.7348 176.929 7.61488L176.985 8.06781H168.365L168.33 7.70353C168.296 7.41885 168.175 7.15178 167.982 6.93952C167.659 6.50754 166.641 5.7935 163.478 5.7935C159.595 5.7935 159.06 6.28994 159.06 6.82508C159.06 7.53912 160.287 7.79218 164.218 8.21287C165.857 8.34665 168.493 8.61744 169.395 8.72705C175.07 9.34277 177.603 11.3946 177.603 15.3823C177.604 18.7269 175.275 22.7178 164.181 22.7178ZM151.304 15.3517C151.385 15.8833 151.524 16.4043 151.718 16.9055C153.217 20.2727 157.295 21.9119 164.181 21.9119C169.938 21.9119 176.803 20.7836 176.803 15.3823C176.803 11.8476 174.563 10.0971 169.31 9.52813C168.407 9.41853 165.788 9.14935 164.152 9.01396C159.961 8.55942 158.257 8.31764 158.257 6.82508C158.257 5.28093 160.093 4.98758 163.481 4.98758C166.159 4.98758 167.888 5.47113 168.622 6.44629C168.821 6.68654 168.973 6.96361 169.066 7.26188H176.052C175.912 6.6385 175.689 6.03638 175.391 5.47113C173.779 2.378 169.842 0.811292 163.672 0.811292C156.201 0.811292 151.373 3.27902 151.373 7.09748C151.373 10.7402 154.083 12.5391 160.43 13.1129C161.236 13.1822 162.991 13.3482 164.384 13.4804L165.09 13.5465C168.518 13.9075 170.03 14.1332 170.03 15.7079C170.03 17.4036 168.075 17.7356 164.698 17.7356C161.575 17.7356 159.602 17.2666 158.839 16.343C158.604 16.0485 158.427 15.7121 158.317 15.3517H151.304ZM192.915 22.6904C184.501 22.6904 179.859 19.2878 179.859 13.108V0.329352H188.002V13.108C188.002 15.2276 189.899 16.4429 193.205 16.4429C196.365 16.4429 198.326 15.1744 198.326 13.1354V0.329352H206.385V13.785C206.393 19.4442 201.479 22.6904 192.91 22.6904H192.915ZM180.665 1.13527V13.108C180.665 20.7449 188.334 21.8845 192.915 21.8845C197.651 21.8845 205.592 20.832 205.592 13.785V1.13527H199.145V13.1354C199.145 15.6338 196.817 17.2489 193.218 17.2489C189.456 17.2489 187.209 15.7015 187.209 13.108V1.13527H180.665ZM240.537 22.3922H232.852V12.4311L228.493 22.3922H221.79L217.476 12.4504V22.3922H209.764V0.329352H219.909L225.179 12.4939L230.705 0.329352H240.547L240.537 22.3922ZM233.658 21.5863H239.731V1.13527H231.217L225.154 14.4797L219.374 1.13527H210.563V21.5863H216.664V8.57231L222.306 21.5912H227.947L233.648 8.59165L233.658 21.5863ZM7.75805 0.732312H0.417725V21.9893H20.7011V16.3301H7.75805V0.732312ZM35.5172 0.248759C26.1476 0.248759 21.2202 4.68938 21.2202 11.2093C21.2202 18.5754 26.3926 22.3117 35.5172 22.3117C45.5622 22.3117 49.7868 17.979 49.7868 11.2093C49.7868 4.33478 45.0206 0.245536 35.5172 0.245536V0.248759ZM35.4898 5.77254C36.1276 5.76954 36.7651 5.80668 37.3982 5.88376L29.1923 14.0896C28.804 13.2114 28.6146 12.258 28.6379 11.2979C28.6379 7.96304 30.3174 5.76932 35.4898 5.76932V5.77254ZM35.5172 16.8749C34.9026 16.8777 34.2885 16.8432 33.6781 16.7718L41.8985 8.55136C42.2723 9.41514 42.4512 10.3507 42.4223 11.2915C42.4223 14.5361 40.875 16.8717 35.5172 16.8717V16.8749ZM64.3305 13.9736H71.8852C71.774 14.4979 71.5422 14.9891 71.2082 15.4081C69.642 16.6841 67.6431 17.305 65.6296 17.1409C64.6161 17.2493 63.5913 17.1386 62.6243 16.8162C61.6574 16.494 60.7709 15.9676 60.0253 15.2727C59.2614 14.1523 58.8986 12.8068 58.9953 11.4543C58.8717 10.0371 59.2662 8.62312 60.1058 7.47465C61.1616 6.28188 62.9491 5.76771 65.5764 5.76771C67.2481 5.6293 68.9176 6.05861 70.3153 6.98626C70.7558 7.33616 71.0851 7.80654 71.263 8.34021H78.2697C78.2188 7.4609 78.0073 6.59834 77.6459 5.79511C75.968 2.38284 72.0673 0.351917 65.4346 0.351917C59.6658 0.351917 55.7942 2.11205 53.6553 4.76675C52.2426 6.68381 51.5175 9.02111 51.5969 11.4011C51.5055 13.835 52.212 16.2319 53.6085 18.2272C55.7216 20.9674 59.4853 22.3149 64.0081 22.3149C67.015 22.5246 70.0014 21.6824 72.4558 19.9326L72.646 21.9893H78.4663V9.39758H64.3305V13.9736ZM94.9861 0.243924C85.6181 0.243924 80.6891 4.68455 80.6891 11.2045C80.6891 18.5706 85.8599 22.3068 94.9861 22.3068C105.033 22.3068 109.257 17.9742 109.257 11.2045C109.257 4.33478 104.491 0.245536 94.9861 0.245536V0.243924ZM94.9603 5.76771C95.5814 5.76587 96.2019 5.80139 96.8188 5.87409L88.6451 14.0526C88.2689 13.184 88.0858 12.2443 88.1084 11.2979C88.1019 7.96304 89.7879 5.76932 94.9603 5.76932V5.76771ZM94.9861 16.8701C94.3552 16.8728 93.7248 16.8361 93.0986 16.7605L101.346 8.51106C101.734 9.38634 101.92 10.3378 101.89 11.2947C101.893 14.5361 100.352 16.8717 94.9861 16.8717V16.8701Z" fill="white"/>
</svg>
